<svg xmlns="http://www.w3.org/2000/svg" xmlns:bx="https://boxy-svg.com" data-bx-workspace="master" viewBox="0 0 24 24" fill="#6e71c6" stroke="white" stroke-width="1.5" stroke-linecap="round" stroke-linejoin="round" class="feather feather-file-text"><defs/><path d="M 17.795 2 C 16.127 2 5.999 1.951 6 2 C 4.895 2 4 2.895 4 4 L 4 20 C 4 21.105 4.895 22 6 22 L 18 22 C 19.105 22 20 21.105 20 20 L 19.812 3.886 C 19.835 3.048 18.928 2 17.795 2 Z"/><line x1="14" y1="6" x2="7" y2="6"/><line x1="12" y1="9" x2="7" y2="9"/><line x1="14" y1="9" x2="17" y2="9"/><line x1="15" y1="12" x2="7" y2="12"/><line x1="17" y1="15" x2="7" y2="15"/><line x1="9" y1="18" x2="7" y2="18"/><line x1="11" y1="18" x2="15" y2="18"/></svg>